<svg xmlns="http://www.w3.org/2000/svg" viewBox="0 0 320 120" fill="none" role="img" aria-label="ShareWell">
  <defs>
    <linearGradient id="logo-left" x1="24" y1="20" x2="72" y2="92" gradientUnits="userSpaceOnUse">
      <stop offset="0%" stop-color="#6eb5a8"/>
      <stop offset="55%" stop-color="#4a8f86"/>
      <stop offset="100%" stop-color="#3d6b66"/>
    </linearGradient>
    <linearGradient id="logo-right" x1="58" y1="16" x2="108" y2="88" gradientUnits="userSpaceOnUse">
      <stop offset="0%" stop-color="#ffffff"/>
      <stop offset="50%" stop-color="#dff0ed"/>
      <stop offset="100%" stop-color="#a8cfc9"/>
    </linearGradient>
    <linearGradient id="logo-text" x1="120" y1="0" x2="320" y2="0" gradientUnits="userSpaceOnUse">
      <stop offset="0%" stop-color="#3d5f73"/>
      <stop offset="100%" stop-color="#3d6b66"/>
    </linearGradient>
    <filter id="logo-shadow" x="-10%" y="-10%" width="120%" height="130%">
      <feDropShadow dx="0" dy="2" stdDeviation="3" flood-color="#3d6b66" flood-opacity="0.16"/>
    </filter>
  </defs>
  <g transform="translate(8 8)">
    <g filter="url(#logo-shadow)">
      <path
        d="M28 30c0-14 11.5-25.5 26-25.5 8.2 0 15.5 3.2 20.8 8.4L58 48c-8.5-5.2-18.2-5.8-27.2-1.8L22 74c-2.8 4.8-8.8 6.2-13.2 3.4s-4.8-8.8-2-13.2L28 48V30Z"
        fill="url(#logo-left)"
      />
      <path
        d="M32 84c-1.2 2-3.6 2.8-5.6 1.8l-8-4.2c-2.2-1.2-3-3.8-1.8-6 1.2-2.2 3.8-3 6-1.8l5.2 2.8c1.4.8 2 2.6 1.2 4Z"
        fill="#3d6b66"
        opacity="0.85"
      />
      <path
        d="M54 26c0-12.2 10-22.2 22.5-22.2 12 0 21.8 9.2 22.4 21l1.1 22c.4 8.8-6.4 16.2-15.2 16.8-4 .3-7.8-1-10.5-3.5L58 84c-6.2 5.5-15.2 5.8-22 .8l-6.5-4.8c-3.8-2.8-4.6-8-1.8-11.8 1.2-1.6 2.8-2.8 4.6-3.5L54 54V26Z"
        fill="url(#logo-right)"
        stroke="rgba(255,255,255,0.6)"
        stroke-width="1.2"
      />
      <circle cx="72" cy="44" r="3.2" fill="#3d6b66" opacity="0.75"/>
      <circle cx="82" cy="44" r="3.2" fill="#3d6b66" opacity="0.55"/>
      <circle cx="92" cy="44" r="3.2" fill="#3d6b66" opacity="0.38"/>
    </g>
  </g>
  <text
    x="128"
    y="78"
    fill="url(#logo-text)"
    font-family="system-ui, -apple-system, 'Segoe UI', sans-serif"
    font-size="42"
    font-weight="600"
    letter-spacing="-0.02em"
  >
    ShareWell
  </text>
</svg>
